<?xml version="1.0" standalone="no"?>
<!DOCTYPE svg PUBLIC "-//W3C//DTD SVG 20010904//EN"
 "http://www.w3.org/TR/2001/REC-SVG-20010904/DTD/svg10.dtd">
<svg version="1.0" xmlns="http://www.w3.org/2000/svg"
 width="768.000000pt" height="768.000000pt" viewBox="0 0 768.000000 768.000000"
 preserveAspectRatio="xMidYMid meet">
<metadata>
Created by potrace 1.14, written by Peter Selinger 2001-2017
</metadata>
<g transform="translate(0.000000,768.000000) scale(0.100000,-0.100000)"
fill="#000000" stroke="none">
<path d="M3518 7675 c-1 -1 -55 -5 -118 -9 -117 -7 -183 -13 -255 -22 -22 -3
-60 -7 -85 -9 -25 -3 -56 -7 -70 -10 -14 -2 -45 -7 -70 -10 -25 -3 -52 -7 -60
-9 -8 -1 -33 -6 -55 -10 -22 -4 -71 -14 -110 -23 -38 -8 -81 -17 -94 -19 -169
-32 -433 -120 -636 -210 -105 -47 -341 -175 -355 -193 -3 -3 -36 -27 -75 -53
-38 -26 -82 -58 -97 -70 -15 -13 -43 -36 -64 -53 -118 -96 -374 -386 -374
-424 0 -5 -6 -11 -13 -14 -6 -3 -23 -27 -37 -53 -13 -27 -28 -51 -31 -54 -8
-6 -100 -187 -127 -250 -23 -55 -46 -113 -48 -120 0 -3 -6 -18 -12 -33 -7 -15
-15 -40 -18 -55 -4 -15 -10 -31 -14 -37 -7 -9 -22 -67 -21 -80 0 -2 -7 -24
-15 -47 -9 -24 -17 -52 -18 -63 -3 -17 -12 -61 -32 -155 -5 -26 -10 -59 -19
-120 -3 -19 -7 -44 -9 -55 -2 -11 -7 -49 -10 -85 -15 -150 -18 -175 -22 -182
-3 -4 0 -10 6 -13 7 -5 8 -11 1 -19 -16 -19 -6 -589 13 -763 3 -26 8 -73 11
-103 3 -31 7 -69 9 -85 3 -17 7 -52 11 -80 3 -27 10 -75 15 -105 5 -30 12 -75
16 -100 9 -64 12 -82 17 -105 3 -11 8 -42 11 -68 4 -27 10 -59 12 -70 6 -28
13 -61 18 -89 2 -13 12 -60 21 -105 9 -45 18 -88 19 -95 2 -7 6 -24 9 -38 4
-14 9 -36 11 -50 3 -14 15 -63 26 -110 12 -47 24 -96 26 -109 3 -13 21 -81 40
-150 19 -69 36 -133 38 -142 10 -39 29 -106 36 -124 5 -11 22 -65 40 -120 17
-55 34 -107 37 -115 3 -8 7 -19 8 -25 5 -18 85 -227 132 -340 71 -174 259
-547 314 -627 11 -14 19 -29 19 -32 0 -4 5 -12 10 -19 6 -7 47 -65 91 -130 44
-65 86 -125 94 -135 8 -9 44 -55 82 -102 122 -153 396 -415 508 -486 17 -10
32 -21 35 -25 14 -19 200 -130 305 -183 173 -88 290 -135 440 -175 44 -12 87
-25 95 -28 8 -3 26 -7 38 -9 13 -1 54 -9 90 -18 59 -13 95 -19 192 -32 190
-25 625 -25 785 0 17 2 52 7 78 11 27 4 59 8 70 11 12 2 34 6 48 9 43 8 272
67 302 78 9 4 25 10 35 14 9 3 23 7 30 9 8 1 21 6 30 10 9 4 19 8 22 9 3 1 22
9 44 18 21 9 40 17 42 17 7 0 214 102 264 131 354 201 702 540 952 927 10 15
22 34 28 42 32 49 58 91 79 130 13 25 29 52 35 60 24 32 125 230 124 244 0 5
4 12 9 15 13 8 153 326 153 345 0 9 4 16 8 16 5 0 9 6 9 13 1 11 13 43 52 140
6 15 8 27 5 27 -4 0 -2 6 4 13 9 11 69 179 77 217 2 8 9 29 15 45 6 17 13 37
15 45 9 35 47 166 52 180 4 8 8 22 9 30 1 8 14 56 28 105 14 50 26 91 26 93 0
1 0 3 1 5 0 1 2 12 5 24 2 12 15 71 30 130 14 59 28 119 30 133 3 14 9 43 14
64 5 22 7 44 4 48 -3 4 -1 8 3 8 5 0 9 9 10 21 1 11 7 44 13 72 5 29 12 63 15
77 3 14 7 36 10 50 5 26 13 74 21 123 2 15 6 39 8 55 3 15 7 43 11 62 8 48 12
76 20 140 4 30 9 62 10 70 7 39 20 162 31 285 28 319 23 742 -11 990 -3 22 -8
58 -10 80 -3 22 -14 83 -25 135 -11 52 -22 106 -24 120 -8 39 -35 138 -62 225
-25 81 -132 346 -143 355 -3 3 -21 34 -40 70 -18 36 -51 91 -72 124 -22 32
-39 61 -39 63 0 3 -18 27 -40 53 -22 26 -40 51 -40 55 0 3 -12 19 -27 35 -16
16 -35 38 -44 49 -52 69 -223 230 -324 306 -54 40 -186 130 -205 138 -8 4 -28
16 -45 27 -43 28 -259 134 -335 165 -151 62 -481 163 -585 179 -11 2 -45 8
-75 14 -51 11 -71 15 -132 26 -13 3 -41 7 -63 10 -22 3 -56 7 -75 10 -81 12
-200 26 -275 32 -44 3 -96 8 -115 10 -40 5 -786 14 -792 9z m327 -1922 l0
-633 70 0 c38 0 77 -1 85 -1 8 -1 29 0 45 0 17 1 63 2 103 1 41 0 78 2 82 5 5
3 11 1 15 -5 4 -6 10 -8 14 -6 7 5 23 5 159 7 l64 0 195 -193 c107 -106 200
-198 206 -204 7 -7 45 -46 85 -87 39 -41 72 -72 72 -69 0 4 8 -5 17 -18 10
-14 28 -33 40 -43 29 -23 21 -40 -12 -27 -15 6 -27 6 -30 0 -3 -6 -15 -6 -30
0 -15 6 -27 6 -30 0 -3 -6 -15 -6 -30 0 -15 6 -27 6 -30 0 -3 -6 -15 -6 -30 0
-15 6 -27 6 -30 0 -3 -6 -15 -6 -30 0 -15 6 -27 6 -30 0 -3 -6 -15 -6 -30 0
-15 6 -27 6 -30 0 -3 -6 -15 -6 -30 0 -15 6 -27 6 -30 0 -3 -5 -15 -6 -28 -1
-12 5 -34 5 -49 0 -16 -4 -28 -4 -28 1 0 6 -10 6 -24 0 -13 -5 -26 -6 -30 -3
-7 7 -96 10 -96 3 0 -3 -34 -5 -75 -5 -41 0 -75 3 -75 7 0 4 -13 3 -30 -2 -17
-5 -32 -5 -35 0 -3 5 -16 5 -28 1 -12 -5 -34 -5 -49 0 -16 4 -28 5 -28 1 0 -4
-47 -7 -105 -7 -58 0 -105 3 -105 7 0 4 -13 3 -29 -2 -16 -4 -31 -7 -33 -4 -7
6 -1 -1449 6 -1501 3 -27 8 -61 11 -75 2 -14 7 -45 10 -69 8 -56 51 -203 76
-260 10 -24 19 -50 19 -57 0 -8 5 -14 10 -14 6 0 10 -6 10 -13 0 -19 90 -154
141 -211 97 -109 280 -228 419 -271 30 -9 62 -19 70 -22 8 -3 26 -8 40 -10 14
-2 39 -8 55 -13 17 -5 50 -11 75 -14 25 -3 56 -8 70 -11 14 -3 73 -7 132 -9
59 -3 113 -8 120 -13 11 -6 14 -73 13 -321 l0 -312 -77 3 c-43 1 -78 -1 -78
-6 0 -4 -6 -5 -12 0 -7 4 -24 8 -38 9 -125 10 -179 15 -200 18 -14 3 -45 8
-70 11 -54 6 -99 14 -122 21 -10 3 -30 7 -45 10 -54 8 -258 72 -318 99 -16 7
-57 25 -90 40 -33 15 -68 35 -79 44 -10 9 -20 14 -22 11 -9 -13 -246 169 -298
229 -12 13 -35 37 -51 55 -41 42 -135 171 -135 185 0 6 -4 11 -10 11 -5 0 -10
4 -10 9 0 5 -15 35 -33 68 -44 78 -118 256 -132 319 -2 11 -13 53 -24 94 -26
99 -39 169 -57 320 -4 30 -9 69 -11 85 -2 17 -6 372 -8 790 -2 418 -4 764 -4
769 -1 4 -10 6 -21 3 -11 -3 -22 -1 -25 4 -3 4 -16 4 -30 -1 -15 -6 -27 -6
-30 0 -3 6 -15 6 -30 0 -15 -6 -27 -6 -30 0 -3 6 -15 6 -30 0 -15 -6 -27 -6
-30 0 -3 6 -15 6 -30 0 -15 -6 -27 -6 -30 0 -3 6 -15 6 -30 0 -15 -6 -27 -6
-30 0 -3 6 -15 6 -30 0 -15 -6 -27 -6 -30 0 -3 6 -15 6 -30 0 -15 -6 -27 -6
-30 0 -3 6 -15 6 -30 0 -15 -6 -27 -6 -30 0 -3 6 -15 6 -30 0 -13 -5 -27 -6
-29 -1 -3 5 -16 6 -29 4 l-23 -5 -2 194 c-2 224 -2 193 0 335 l1 111 34 4 c18
2 33 1 33 -2 0 -3 26 -3 58 0 31 3 73 3 92 0 19 -3 46 -3 60 0 14 3 41 3 60 0
19 -3 51 -3 70 0 19 4 46 3 60 0 14 -4 39 -4 55 0 17 3 44 3 60 0 62 -13 60
-23 59 322 l0 313 51 54 c153 160 571 576 580 577 7 0 10 -216 10 -633z"/>
</g>
</svg>
